<svg xmlns="http://www.w3.org/2000/svg" xmlns:xlink="http://www.w3.org/1999/xlink" width="2048" height="2048"><style>.B{fill-opacity:0}.C{stroke:#000}.D{stroke-opacity:0}</style><defs><path d="M340.48 940.8l212.8-123.2v492.16l-212.8-122.88L128 1063.68 340.48 940.8z" id="A"/><path d="M340.48 940.8l212.8-123.2v492.16l-212.8-122.88L128 1063.68 340.48 940.8z" id="B"/><path d="M340.48 940.8l212.8-123.2v492.16l-212.8-122.88L128 1063.68 340.48 940.8z" id="C"/><path d="M340.48 940.8l212.8-123.2v492.16l-212.8-122.88L128 1063.68 340.48 940.8z" id="D"/><path d="M340.48 940.8l212.8-123.2v492.16l-212.8-122.88L128 1063.68 340.48 940.8z" id="E"/><path d="M340.48 940.8l212.8-123.2v492.16l-212.8-122.88L128 1063.68 340.48 940.8z" id="F"/><path d="M340.48 940.8l212.8-123.2v492.16l-212.8-122.88L128 1063.68 340.48 940.8z" id="G"/><path d="M340.48 940.8l212.8-123.2v492.16l-212.8-122.88L128 1063.68 340.48 940.8z" id="H"/><path d="M128 1063.68V571.52l425.6 246.4L128 1063.68z" id="I"/><path d="M128 1063.68V571.52l425.6 246.4L128 1063.68z" id="J"/><path d="M128 1063.68V571.52l425.6 246.4L128 1063.68z" id="K"/><path d="M128 1063.68V571.52l425.6 246.4L128 1063.68z" id="L"/><path d="M128 1063.68V571.52l425.6 246.4L128 1063.68z" id="M"/><path d="M128 1063.68V571.52l425.6 246.4L128 1063.68z" id="N"/><path d="M128 1063.68V571.52l425.6 246.4L128 1063.68z" id="O"/><path d="M128 1063.68V571.52l425.6 246.4L128 1063.68z" id="P"/><path d="M765.76 1679.04l-212.48 122.88v-492.16l424.96 246.4-212.48 122.88z" id="Q"/><path d="M765.76 1679.04l-212.48 122.88v-492.16l424.96 246.4-212.48 122.88z" id="R"/><path d="M765.76 1679.04l-212.48 122.88v-492.16l424.96 246.4-212.48 122.88z" id="S"/><path d="M765.76 1679.04l-212.48 122.88v-492.16l424.96 246.4-212.48 122.88z" id="T"/><path d="M765.76 1679.04l-212.48 122.88v-492.16l424.96 246.4-212.48 122.88z" id="U"/><path d="M765.76 1679.04l-212.48 122.88v-492.16l424.96 246.4-212.48 122.88z" id="V"/><path d="M765.76 1679.04l-212.48 122.88v-492.16l424.96 246.4-212.48 122.88z" id="W"/><path d="M765.76 1679.04l-212.48 122.88v-492.16l424.96 246.4-212.48 122.88z" id="X"/><path d="M128 1063.68v492.16l212.48-122.88 212.8-123.2-212.8-122.88L128 1063.68z" id="Y"/><path d="M128 1063.68v492.16l212.48-122.88 212.8-123.2-212.8-122.88L128 1063.68z" id="Z"/><path d="M128 1063.68v492.16l212.48-122.88 212.8-123.2-212.8-122.88L128 1063.68z" id="a"/><path d="M128 1063.68v492.16l212.48-122.88 212.8-123.2-212.8-122.88L128 1063.68z" id="b"/><path d="M128 1063.68v492.16l212.48-122.88 212.8-123.2-212.8-122.88L128 1063.68z" id="c"/><path d="M128 1063.68v492.16l212.48-122.88 212.8-123.2-212.8-122.88L128 1063.68z" id="d"/><path d="M128 1063.68v492.16l212.48-122.88 212.8-123.2-212.8-122.88L128 1063.68z" id="e"/><path d="M128 1063.68v492.16l212.48-122.88 212.8-123.2-212.8-122.88L128 1063.68z" id="f"/><path d="M978.24 2048v-492.16l-212.48 123.2-212.48 122.88L978.24 2048z" id="g"/><path d="M978.24 2048v-492.16l-212.48 123.2-212.48 122.88L978.24 2048z" id="h"/><path d="M978.24 2048v-492.16l-212.48 123.2-212.48 122.88L978.24 2048z" id="i"/><path d="M978.24 2048v-492.16l-212.48 123.2-212.48 122.88L978.24 2048z" id="j"/><path d="M978.24 2048v-492.16l-212.48 123.2-212.48 122.88L978.24 2048z" id="k"/><path d="M978.24 2048v-492.16l-212.48 123.2-212.48 122.88L978.24 2048z" id="l"/><path d="M978.24 2048v-492.16l-212.48 123.2-212.48 122.88L978.24 2048z" id="m"/><path d="M978.24 2048v-492.16l-212.48 123.2-212.48 122.88L978.24 2048z" id="n"/><path d="M340.48 1432.96l212.8-123.2v491.84L128 1555.84l212.48-122.88z" id="o"/><path d="M340.48 1432.96l212.8-123.2v491.84L128 1555.84l212.48-122.88z" id="p"/><path d="M340.48 1432.96l212.8-123.2v491.84L128 1555.84l212.48-122.88z" id="q"/><path d="M340.48 1432.96l212.8-123.2v491.84L128 1555.84l212.48-122.88z" id="r"/><path d="M340.48 1432.96l212.8-123.2v491.84L128 1555.84l212.48-122.88z" id="s"/><path d="M340.48 1432.96l212.8-123.2v491.84L128 1555.84l212.48-122.88z" id="t"/><path d="M340.48 1432.96l212.8-123.2v491.84L128 1555.84l212.48-122.88z" id="u"/><path d="M340.48 1432.96l212.8-123.2v491.84L128 1555.84l212.48-122.88z" id="v"/><path d="M1494.4 817.28v492.16l425.6-245.76-425.6-246.4z" id="w"/><path d="M1494.4 817.28v492.16l425.6-245.76-425.6-246.4z" id="x"/><path d="M1494.4 817.28v492.16l425.6-245.76-425.6-246.4z" id="y"/><path d="M1494.4 817.28v492.16l425.6-245.76-425.6-246.4z" id="z"/><path d="M1494.4 817.28v492.16l425.6-245.76-425.6-246.4z" id="AA"/><path d="M1494.4 817.28v492.16l425.6-245.76-425.6-246.4z" id="AB"/><path d="M1494.4 817.28v492.16l425.6-245.76-425.6-246.4z" id="AC"/><path d="M1494.4 817.28v492.16l425.6-245.76-425.6-246.4z" id="AD"/><path d="M1920 1064V571.52l-212.48 123.2-212.8 122.88L1920 1064z" id="AE"/><path d="M1920 1064V571.52l-212.48 123.2-212.8 122.88L1920 1064z" id="AF"/><path d="M1920 1064V571.52l-212.48 123.2-212.8 122.88L1920 1064z" id="AG"/><path d="M1920 1064V571.52l-212.48 123.2-212.8 122.88L1920 1064z" id="AH"/><path d="M1920 1064V571.52l-212.48 123.2-212.8 122.88L1920 1064z" id="AI"/><path d="M1920 1064V571.52l-212.48 123.2-212.8 122.88L1920 1064z" id="AJ"/><path d="M1920 1064V571.52l-212.48 123.2-212.8 122.88L1920 1064z" id="AK"/><path d="M1920 1064V571.52l-212.48 123.2-212.8 122.88L1920 1064z" id="AL"/><path d="M1069.76 1555.84l424.96 246.4v-492.48l-212.48 123.2-212.48 122.88z" id="AM"/><path d="M1069.76 1555.84l424.96 246.4v-492.48l-212.48 123.2-212.48 122.88z" id="AN"/><path d="M1069.76 1555.84l424.96 246.4v-492.48l-212.48 123.2-212.48 122.88z" id="AO"/><path d="M1069.76 1555.84l424.96 246.4v-492.48l-212.48 123.2-212.48 122.88z" id="AP"/><path d="M1069.76 1555.84l424.96 246.4v-492.48l-212.48 123.2-212.48 122.88z" id="AQ"/><path d="M1069.76 1555.84l424.96 246.4v-492.48l-212.48 123.2-212.48 122.88z" id="AR"/><path d="M1069.76 1555.84l424.96 246.4v-492.48l-212.48 123.2-212.48 122.88z" id="AS"/><path d="M1069.76 1555.84l424.96 246.4v-492.48l-212.48 123.2-212.48 122.88z" id="AT"/><path d="M1920 1063.68v492.16l-425.6-246.4 425.6-245.76z" id="AU"/><path d="M1920 1063.68v492.16l-425.6-246.4 425.6-245.76z" id="AV"/><path d="M1920 1063.68v492.16l-425.6-246.4 425.6-245.76z" id="AW"/><path d="M1920 1063.68v492.16l-425.6-246.4 425.6-245.76z" id="AX"/><path d="M1920 1063.68v492.16l-425.6-246.4 425.6-245.76z" id="AY"/><path d="M1920 1063.68v492.16l-425.6-246.4 425.6-245.76z" id="AZ"/><path d="M1920 1063.68v492.16l-425.6-246.4 425.6-245.76z" id="Aa"/><path d="M1920 1063.68v492.16l-425.6-246.4 425.6-245.76z" id="Ab"/><path d="M1069.76 2048v-492.16l424.96 246.4-212.48 123.2L1069.76 2048z" id="Ac"/><path d="M1069.76 2048v-492.16l424.96 246.4-212.48 123.2L1069.76 2048z" id="Ad"/><path d="M1069.76 2048v-492.16l424.96 246.4-212.48 123.2L1069.76 2048z" id="Ae"/><path d="M1069.76 2048v-492.16l424.96 246.4-212.48 123.2L1069.76 2048z" id="Af"/><path d="M1069.76 2048v-492.16l424.96 246.4-212.48 123.2L1069.76 2048z" id="Ag"/><path d="M1069.76 2048v-492.16l424.96 246.4-212.48 123.2L1069.76 2048z" id="Ah"/><path d="M1069.76 2048v-492.16l424.96 246.4-212.48 123.2L1069.76 2048z" id="Ai"/><path d="M1069.76 2048v-492.16l424.96 246.4-212.48 123.2L1069.76 2048z" id="Aj"/><path d="M1920 1555.84l-425.6-246.4v492.16l425.6-245.76z" id="Ak"/><path d="M1920 1555.84l-425.6-246.4v492.16l425.6-245.76z" id="Al"/><path d="M1920 1555.84l-425.6-246.4v492.16l425.6-245.76z" id="Am"/><path d="M1920 1555.84l-425.6-246.4v492.16l425.6-245.76z" id="An"/><path d="M1920 1555.84l-425.6-246.4v492.16l425.6-245.76z" id="Ao"/><path d="M1920 1555.84l-425.6-246.4v492.16l425.6-245.76z" id="Ap"/><path d="M1920 1555.84l-425.6-246.4v492.16l425.6-245.76z" id="Aq"/><path d="M1920 1555.84l-425.6-246.4v492.16l425.6-245.76z" id="Ar"/><path d="M1449.6 246.4v492.16l-212.8-122.88L1024 492.16l425.6-245.76z" id="As"/><path d="M1449.6 246.4v492.16l-212.8-122.88L1024 492.16l425.6-245.76z" id="At"/><path d="M1449.6 246.4v492.16l-212.8-122.88L1024 492.16l425.6-245.76z" id="Au"/><path d="M1449.6 246.4v492.16l-212.8-122.88L1024 492.16l425.6-245.76z" id="Av"/><path d="M1449.6 246.4v492.16l-212.8-122.88L1024 492.16l425.6-245.76z" id="Aw"/><path d="M1449.6 246.4v492.16l-212.8-122.88L1024 492.16l425.6-245.76z" id="Ax"/><path d="M1449.6 246.4v492.16l-212.8-122.88L1024 492.16l425.6-245.76z" id="Ay"/><path d="M1449.6 246.4v492.16l-212.8-122.88L1024 492.16l425.6-245.76z" id="Az"/><path d="M1449.28 738.24V246.4l212.48 122.88 212.48 123.2-212.48 123.2-212.48 122.56z" id="BA"/><path d="M1449.28 738.24V246.4l212.48 122.88 212.48 123.2-212.48 123.2-212.48 122.56z" id="BB"/><path d="M1449.28 738.24V246.4l212.48 122.88 212.48 123.2-212.48 123.2-212.48 122.56z" id="BC"/><path d="M1449.28 738.24V246.4l212.48 122.88 212.48 123.2-212.48 123.2-212.48 122.56z" id="BD"/><path d="M1449.28 738.24V246.4l212.48 122.88 212.48 123.2-212.48 123.2-212.48 122.56z" id="BE"/><path d="M1449.28 738.24V246.4l212.48 122.88 212.48 123.2-212.48 123.2-212.48 122.56z" id="BF"/><path d="M1449.28 738.24V246.4l212.48 122.88 212.48 123.2-212.48 123.2-212.48 122.56z" id="BG"/><path d="M1449.28 738.24V246.4l212.48 122.88 212.48 123.2-212.48 123.2-212.48 122.56z" id="BH"/><path d="M598.72 738.24V246.4l425.6 246.4L811.84 616 598.72 738.24z" id="BI"/><path d="M598.72 738.24V246.4l425.6 246.4L811.84 616 598.72 738.24z" id="BJ"/><path d="M598.72 738.24V246.4l425.6 246.4L811.84 616 598.72 738.24z" id="BK"/><path d="M598.72 738.24V246.4l425.6 246.4L811.84 616 598.72 738.24z" id="BL"/><path d="M598.72 738.24V246.4l425.6 246.4L811.84 616 598.72 738.24z" id="BM"/><path d="M598.72 738.24V246.4l425.6 246.4L811.84 616 598.72 738.24z" id="BN"/><path d="M598.72 738.24V246.4l425.6 246.4L811.84 616 598.72 738.24z" id="BO"/><path d="M598.72 738.24V246.4l425.6 246.4L811.84 616 598.72 738.24z" id="BP"/><path d="M1236.8 123.52L1024 0v492.16l425.6-245.76-212.8-122.88z" id="BQ"/><path d="M1236.8 123.52L1024 0v492.16l425.6-245.76-212.8-122.88z" id="BR"/><path d="M1236.8 123.52L1024 0v492.16l425.6-245.76-212.8-122.88z" id="BS"/><path d="M1236.8 123.52L1024 0v492.16l425.6-245.76-212.8-122.88z" id="BT"/><path d="M1236.8 123.52L1024 0v492.16l425.6-245.76-212.8-122.88z" id="BU"/><path d="M1236.8 123.52L1024 0v492.16l425.6-245.76-212.8-122.88z" id="BV"/><path d="M1236.8 123.52L1024 0v492.16l425.6-245.76-212.8-122.88z" id="BW"/><path d="M1236.8 123.52L1024 0v492.16l425.6-245.76-212.8-122.88z" id="BX"/><path d="M598.72 738.56V246.4L386.24 369.6 173.76 492.48l424.96 246.08z" id="BY"/><path d="M598.72 738.56V246.4L386.24 369.6 173.76 492.48l424.96 246.08z" id="BZ"/><path d="M598.72 738.56V246.4L386.24 369.6 173.76 492.48l424.96 246.08z" id="Ba"/><path d="M598.72 738.56V246.4L386.24 369.6 173.76 492.48l424.96 246.08z" id="Bb"/><path d="M598.72 738.56V246.4L386.24 369.6 173.76 492.48l424.96 246.08z" id="Bc"/><path d="M598.72 738.56V246.4L386.24 369.6 173.76 492.48l424.96 246.08z" id="Bd"/><path d="M598.72 738.56V246.4L386.24 369.6 173.76 492.48l424.96 246.08z" id="Be"/><path d="M598.72 738.56V246.4L386.24 369.6 173.76 492.48l424.96 246.08z" id="Bf"/><path d="M1024 0v492.16L598.4 246.4l212.8-122.88L1024 0z" id="Bg"/><path d="M1024 0v492.16L598.4 246.4l212.8-122.88L1024 0z" id="Bh"/><path d="M1024 0v492.16L598.4 246.4l212.8-122.88L1024 0z" id="Bi"/><path d="M1024 0v492.16L598.4 246.4l212.8-122.88L1024 0z" id="Bj"/><path d="M1024 0v492.16L598.4 246.4l212.8-122.88L1024 0z" id="Bk"/><path d="M1024 0v492.16L598.4 246.4l212.8-122.88L1024 0z" id="Bl"/><path d="M1024 0v492.16L598.4 246.4l212.8-122.88L1024 0z" id="Bm"/><path d="M1024 0v492.16L598.4 246.4l212.8-122.88L1024 0z" id="Bn"/></defs><use xlink:href="#A" fill="#f6911f"/><use xlink:href="#A" class="B C D"/><use xlink:href="#B" class="B"/><use xlink:href="#B" class="B C D"/><use xlink:href="#C" class="B"/><use xlink:href="#C" class="B C D"/><use xlink:href="#D" class="B"/><use xlink:href="#D" class="B C D"/><use xlink:href="#E" class="B"/><use xlink:href="#E" class="B C D"/><use xlink:href="#F" class="B"/><use xlink:href="#F" class="B C D"/><use xlink:href="#G" class="B"/><use xlink:href="#G" class="B C D"/><use xlink:href="#H" class="B"/><use xlink:href="#H" class="B C D"/><use xlink:href="#I" fill="#ffdd29"/><use xlink:href="#I" class="B C D"/><use xlink:href="#J" class="B"/><use xlink:href="#J" class="B C D"/><use xlink:href="#K" class="B"/><use xlink:href="#K" class="B C D"/><use xlink:href="#L" class="B"/><use xlink:href="#L" class="B C D"/><use xlink:href="#M" class="B"/><use xlink:href="#M" class="B C D"/><use xlink:href="#N" class="B"/><use xlink:href="#N" class="B C D"/><use xlink:href="#O" class="B"/><use xlink:href="#O" class="B C D"/><use xlink:href="#P" class="B"/><use xlink:href="#P" class="B C D"/><use xlink:href="#Q" fill="#a51e24"/><use xlink:href="#Q" class="B C D"/><use xlink:href="#R" class="B"/><use xlink:href="#R" class="B C D"/><use xlink:href="#S" class="B"/><use xlink:href="#S" class="B C D"/><use xlink:href="#T" class="B"/><use xlink:href="#T" class="B C D"/><use xlink:href="#U" class="B"/><use xlink:href="#U" class="B C D"/><use xlink:href="#V" class="B"/><use xlink:href="#V" class="B C D"/><use xlink:href="#W" class="B"/><use xlink:href="#W" class="B C D"/><use xlink:href="#X" class="B"/><use xlink:href="#X" class="B C D"/><use xlink:href="#Y" fill="#f1592a"/><use xlink:href="#Y" class="B C D"/><use xlink:href="#Z" class="B"/><use xlink:href="#Z" class="B C D"/><use xlink:href="#a" class="B"/><use xlink:href="#a" class="B C D"/><use xlink:href="#b" class="B"/><use xlink:href="#b" class="B C D"/><use xlink:href="#c" class="B"/><use xlink:href="#c" class="B C D"/><use xlink:href="#d" class="B"/><use xlink:href="#d" class="B C D"/><use xlink:href="#e" class="B"/><use xlink:href="#e" class="B C D"/><use xlink:href="#f" class="B"/><use xlink:href="#f" class="B C D"/><use xlink:href="#g" fill="#781c20"/><use xlink:href="#g" class="B C D"/><use xlink:href="#h" class="B"/><use xlink:href="#h" class="B C D"/><use xlink:href="#i" class="B"/><use xlink:href="#i" class="B C D"/><use xlink:href="#j" class="B"/><use xlink:href="#j" class="B C D"/><use xlink:href="#k" class="B"/><use xlink:href="#k" class="B C D"/><use xlink:href="#l" class="B"/><use xlink:href="#l" class="B C D"/><use xlink:href="#m" class="B"/><use xlink:href="#m" class="B C D"/><use xlink:href="#n" class="B"/><use xlink:href="#n" class="B C D"/><use xlink:href="#o" fill="#d02128"/><use xlink:href="#o" class="B C D"/><use xlink:href="#p" class="B"/><use xlink:href="#p" class="B C D"/><use xlink:href="#q" class="B"/><use xlink:href="#q" class="B C D"/><use xlink:href="#r" class="B"/><use xlink:href="#r" class="B C D"/><use xlink:href="#s" class="B"/><use xlink:href="#s" class="B C D"/><use xlink:href="#t" class="B"/><use xlink:href="#t" class="B C D"/><use xlink:href="#u" class="B"/><use xlink:href="#u" class="B C D"/><use xlink:href="#v" class="B"/><use xlink:href="#v" class="B C D"/><use xlink:href="#w" fill="#b367b2"/><use xlink:href="#w" class="B C D"/><use xlink:href="#x" class="B"/><use xlink:href="#x" class="B C D"/><use xlink:href="#y" class="B"/><use xlink:href="#y" class="B C D"/><use xlink:href="#z" class="B"/><use xlink:href="#z" class="B C D"/><use xlink:href="#AA" class="B"/><use xlink:href="#AA" class="B C D"/><use xlink:href="#AB" class="B"/><use xlink:href="#AB" class="B C D"/><use xlink:href="#AC" class="B"/><use xlink:href="#AC" class="B C D"/><use xlink:href="#AD" class="B"/><use xlink:href="#AD" class="B C D"/><use xlink:href="#AE" fill="#d9b3da"/><use xlink:href="#AE" class="B C D"/><use xlink:href="#AF" class="B"/><use xlink:href="#AF" class="B C D"/><use xlink:href="#AG" class="B"/><use xlink:href="#AG" class="B C D"/><use xlink:href="#AH" class="B"/><use xlink:href="#AH" class="B C D"/><use xlink:href="#AI" class="B"/><use xlink:href="#AI" class="B C D"/><use xlink:href="#AJ" class="B"/><use xlink:href="#AJ" class="B C D"/><use xlink:href="#AK" class="B"/><use xlink:href="#AK" class="B C D"/><use xlink:href="#AL" class="B"/><use xlink:href="#AL" class="B C D"/><use xlink:href="#AM" fill="#4d014c"/><use xlink:href="#AM" class="B C D"/><use xlink:href="#AN" class="B"/><use xlink:href="#AN" class="B C D"/><use xlink:href="#AO" class="B"/><use xlink:href="#AO" class="B C D"/><use xlink:href="#AP" class="B"/><use xlink:href="#AP" class="B C D"/><use xlink:href="#AQ" class="B"/><use xlink:href="#AQ" class="B C D"/><use xlink:href="#AR" class="B"/><use xlink:href="#AR" class="B C D"/><use xlink:href="#AS" class="B"/><use xlink:href="#AS" class="B C D"/><use xlink:href="#AT" class="B"/><use xlink:href="#AT" class="B C D"/><use xlink:href="#AU" fill="#9a3198"/><use xlink:href="#AU" class="B C D"/><use xlink:href="#AV" class="B"/><use xlink:href="#AV" class="B C D"/><use xlink:href="#AW" class="B"/><use xlink:href="#AW" class="B C D"/><use xlink:href="#AX" class="B"/><use xlink:href="#AX" class="B C D"/><use xlink:href="#AY" class="B"/><use xlink:href="#AY" class="B C D"/><use xlink:href="#AZ" class="B"/><use xlink:href="#AZ" class="B C D"/><use xlink:href="#Aa" class="B"/><use xlink:href="#Aa" class="B C D"/><use xlink:href="#Ab" class="B"/><use xlink:href="#Ab" class="B C D"/><use xlink:href="#Ac" fill="#340033"/><use xlink:href="#Ac" class="B C D"/><use xlink:href="#Ad" class="B"/><use xlink:href="#Ad" class="B C D"/><use xlink:href="#Ae" class="B"/><use xlink:href="#Ae" class="B C D"/><use xlink:href="#Af" class="B"/><use xlink:href="#Af" class="B C D"/><use xlink:href="#Ag" class="B"/><use xlink:href="#Ag" class="B C D"/><use xlink:href="#Ah" class="B"/><use xlink:href="#Ah" class="B C D"/><use xlink:href="#Ai" class="B"/><use xlink:href="#Ai" class="B C D"/><use xlink:href="#Aj" class="B"/><use xlink:href="#Aj" class="B C D"/><use xlink:href="#Ak" fill="#690067"/><use xlink:href="#Ak" class="B C D"/><use xlink:href="#Al" class="B"/><use xlink:href="#Al" class="B C D"/><use xlink:href="#Am" class="B"/><use xlink:href="#Am" class="B C D"/><use xlink:href="#An" class="B"/><use xlink:href="#An" class="B C D"/><use xlink:href="#Ao" class="B"/><use xlink:href="#Ao" class="B C D"/><use xlink:href="#Ap" class="B"/><use xlink:href="#Ap" class="B C D"/><use xlink:href="#Aq" class="B"/><use xlink:href="#Aq" class="B C D"/><use xlink:href="#Ar" class="B"/><use xlink:href="#Ar" class="B C D"/><use xlink:href="#As" fill="#042f85"/><use xlink:href="#As" class="B C D"/><use xlink:href="#At" class="B"/><use xlink:href="#At" class="B C D"/><use xlink:href="#Au" class="B"/><use xlink:href="#Au" class="B C D"/><use xlink:href="#Av" class="B"/><use xlink:href="#Av" class="B C D"/><use xlink:href="#Aw" class="B"/><use xlink:href="#Aw" class="B C D"/><use xlink:href="#Ax" class="B"/><use xlink:href="#Ax" class="B C D"/><use xlink:href="#Ay" class="B"/><use xlink:href="#Ay" class="B C D"/><use xlink:href="#Az" class="B"/><use xlink:href="#Az" class="B C D"/><use xlink:href="#BA" fill="#0d2659"/><use xlink:href="#BA" class="B C D"/><use xlink:href="#BB" class="B"/><use xlink:href="#BB" class="B C D"/><use xlink:href="#BC" class="B"/><use xlink:href="#BC" class="B C D"/><use xlink:href="#BD" class="B"/><use xlink:href="#BD" class="B C D"/><use xlink:href="#BE" class="B"/><use xlink:href="#BE" class="B C D"/><use xlink:href="#BF" class="B"/><use xlink:href="#BF" class="B C D"/><use xlink:href="#BG" class="B"/><use xlink:href="#BG" class="B C D"/><use xlink:href="#BH" class="B"/><use xlink:href="#BH" class="B C D"/><use xlink:href="#BI" fill="#027fcc"/><use xlink:href="#BI" class="B C D"/><use xlink:href="#BJ" class="B"/><use xlink:href="#BJ" class="B C D"/><use xlink:href="#BK" class="B"/><use xlink:href="#BK" class="B C D"/><use xlink:href="#BL" class="B"/><use xlink:href="#BL" class="B C D"/><use xlink:href="#BM" class="B"/><use xlink:href="#BM" class="B C D"/><use xlink:href="#BN" class="B"/><use xlink:href="#BN" class="B C D"/><use xlink:href="#BO" class="B"/><use xlink:href="#BO" class="B C D"/><use xlink:href="#BP" class="B"/><use xlink:href="#BP" class="B C D"/><use xlink:href="#BQ" fill="#1845a2"/><use xlink:href="#BQ" class="B C D"/><use xlink:href="#BR" class="B"/><use xlink:href="#BR" class="B C D"/><use xlink:href="#BS" class="B"/><use xlink:href="#BS" class="B C D"/><use xlink:href="#BT" class="B"/><use xlink:href="#BT" class="B C D"/><use xlink:href="#BU" class="B"/><use xlink:href="#BU" class="B C D"/><use xlink:href="#BV" class="B"/><use xlink:href="#BV" class="B C D"/><use xlink:href="#BW" class="B"/><use xlink:href="#BW" class="B C D"/><use xlink:href="#BX" class="B"/><use xlink:href="#BX" class="B C D"/><use xlink:href="#BY" fill="#0daee2"/><use xlink:href="#BY" class="B C D"/><use xlink:href="#BZ" class="B"/><use xlink:href="#BZ" class="B C D"/><use xlink:href="#Ba" class="B"/><use xlink:href="#Ba" class="B C D"/><use xlink:href="#Bb" class="B"/><use xlink:href="#Bb" class="B C D"/><use xlink:href="#Bc" class="B"/><use xlink:href="#Bc" class="B C D"/><use xlink:href="#Bd" class="B"/><use xlink:href="#Bd" class="B C D"/><use xlink:href="#Be" class="B"/><use xlink:href="#Be" class="B C D"/><use xlink:href="#Bf" class="B"/><use xlink:href="#Bf" class="B C D"/><use xlink:href="#Bg" fill="#0d51d9"/><use xlink:href="#Bg" class="B C D"/><use xlink:href="#Bh" class="B"/><use xlink:href="#Bh" class="B C D"/><use xlink:href="#Bi" class="B"/><use xlink:href="#Bi" class="B C D"/><use xlink:href="#Bj" class="B"/><use xlink:href="#Bj" class="B C D"/><use xlink:href="#Bk" class="B"/><use xlink:href="#Bk" class="B C D"/><use xlink:href="#Bl" class="B"/><use xlink:href="#Bl" class="B C D"/><use xlink:href="#Bm" class="B"/><use xlink:href="#Bm" class="B C D"/><use xlink:href="#Bn" class="B"/><use xlink:href="#Bn" class="B C D"/></svg>